<svg version="1.1" id="Layer_1" xmlns="http://www.w3.org/2000/svg" xmlns:xlink="http://www.w3.org/1999/xlink" x="0px" y="0px"
	 width="100%" viewBox="0 0 138 132" enable-background="new 0 0 138 132" xml:space="preserve">
<path fill="#BF975E" opacity="1.000000" stroke="none" 
	d="
M41.000000,1.000000 
	C46.022091,1.000000 51.044186,1.000000 56.737183,1.326043 
	C80.044128,6.188476 94.153984,21.383942 96.012077,43.226273 
	C98.253098,69.569977 86.965530,85.818207 58.661304,96.991966 
	C58.149338,109.939835 65.036140,118.944908 77.448563,121.082504 
	C81.347878,121.754021 85.413361,122.014114 89.358551,121.764252 
	C102.282600,120.945717 110.702477,114.220047 111.974510,101.451477 
	C113.203148,89.118523 112.683922,76.555511 112.167374,64.125359 
	C111.851410,56.521873 111.212341,56.458195 103.604202,55.735947 
	C100.509949,55.442207 98.292442,54.350216 98.494141,51.002644 
	C98.695610,47.658810 101.028694,46.849754 104.134674,46.894119 
	C113.786621,47.031971 123.443916,46.857033 133.093140,47.072552 
	C135.075455,47.116825 137.031723,48.327148 139.000000,49.000000 
	C139.000000,50.066669 139.000000,51.133339 138.707840,52.814472 
	C136.195343,54.247883 134.020569,55.565006 131.744354,55.773220 
	C127.992470,56.116425 125.853119,57.421642 125.748436,61.455967 
	C125.645218,65.433731 125.126846,69.401909 125.055519,73.379051 
	C124.918427,81.023460 125.221336,88.682144 124.891914,96.315498 
	C124.024193,116.423058 115.029167,127.110779 95.548164,131.693756 
	C94.330399,131.980240 93.181137,132.557846 92.000000,133.000000 
	C84.979050,133.000000 77.958107,133.000000 70.308929,132.659515 
	C69.056923,132.104034 68.444511,131.844986 67.807709,131.680420 
	C48.543850,126.702126 42.177471,119.514061 40.090225,99.784538 
	C39.789143,96.938576 38.508186,96.407249 36.193676,95.775703 
	C18.938389,91.067314 7.677272,80.204262 2.833064,62.850449 
	C2.456519,61.501514 1.621779,60.280479 0.999999,59.000000 
	C1.000000,57.285641 1.000000,55.571285 1.202984,53.157799 
	C1.270645,50.972450 1.135323,49.486225 1.000000,48.000000 
	C1.000000,46.285641 1.000000,44.571285 1.325786,42.245373 
	C1.877248,40.840611 2.129986,40.053978 2.324637,39.253227 
	C7.009796,19.979519 18.659372,7.480143 38.034309,2.444279 
	C39.077526,2.173129 40.013893,1.490879 41.000000,1.000000 
M40.422142,84.278770 
	C40.323425,76.533272 40.224712,68.787773 39.949051,60.275471 
	C39.769623,57.225422 38.106655,55.852158 35.098804,55.779121 
	C33.440029,55.738842 31.419094,55.944157 30.226881,55.099491 
	C28.760967,54.060921 27.989059,52.042782 26.917175,50.448051 
	C28.246298,49.592789 29.474857,48.363014 30.928799,47.972588 
	C32.961937,47.426636 35.161003,47.376347 37.292839,47.341030 
	C47.441383,47.172909 57.593990,46.943539 67.736816,47.148499 
	C68.924583,47.172497 70.923233,49.712002 70.972366,51.139519 
	C71.019112,52.497562 69.255707,54.352848 67.821709,55.198635 
	C66.515244,55.969219 64.347366,55.237404 62.984535,55.964767 
	C61.206619,56.913662 58.589046,58.585590 58.516239,60.054626 
	C58.092506,68.604591 58.308800,77.186272 58.308800,85.842499 
	C65.615349,84.327606 71.962311,78.692535 74.839874,70.235458 
	C80.214668,54.439041 78.857506,38.955299 70.634476,24.438204 
	C64.891235,14.298993 55.543484,9.969753 44.084202,11.322114 
	C32.854435,12.647389 25.567717,19.527658 22.263157,30.065866 
	C17.787987,44.337128 18.984438,58.414474 25.881935,71.756844 
	C28.974838,77.739700 33.126400,82.921333 40.422142,84.278770 
z"/>
<path fill="#FEFEFE" opacity="1.000000" stroke="none" 
	d="
M139.000000,48.531342 
	C137.031723,48.327148 135.075455,47.116825 133.093140,47.072552 
	C123.443916,46.857033 113.786621,47.031971 104.134674,46.894119 
	C101.028694,46.849754 98.695610,47.658810 98.494141,51.002644 
	C98.292442,54.350216 100.509949,55.442207 103.604202,55.735947 
	C111.212341,56.458195 111.851410,56.521873 112.167374,64.125359 
	C112.683922,76.555511 113.203148,89.118523 111.974510,101.451477 
	C110.702477,114.220047 102.282600,120.945717 89.358551,121.764252 
	C85.413361,122.014114 81.347878,121.754021 77.448563,121.082504 
	C65.036140,118.944908 58.149338,109.939835 58.661304,96.991966 
	C86.965530,85.818207 98.253098,69.569977 96.012077,43.226273 
	C94.153984,21.383942 80.044128,6.188476 57.204044,1.326043 
	C84.241028,1.000000 111.482056,1.000000 139.000000,1.000000 
	C139.000000,16.686476 139.000000,32.374580 139.000000,48.531342 
z"/>
<path fill="#FFFEFE" opacity="1.000000" stroke="none" 
	d="
M0.999999,59.468658 
	C1.621779,60.280479 2.456519,61.501514 2.833064,62.850449 
	C7.677272,80.204262 18.938389,91.067314 36.193676,95.775703 
	C38.508186,96.407249 39.789143,96.938576 40.090225,99.784538 
	C42.177471,119.514061 48.543850,126.702126 67.807709,131.680420 
	C68.444511,131.844986 69.056923,132.104034 69.840347,132.659515 
	C47.070580,133.000000 24.141159,133.000000 1.000000,133.000000 
	C1.000000,108.646179 1.000000,84.291748 0.999999,59.468658 
z"/>
<path fill="#FEFEFD" opacity="1.000000" stroke="none" 
	d="
M92.468658,133.000000 
	C93.181137,132.557846 94.330399,131.980240 95.548164,131.693756 
	C115.029167,127.110779 124.024193,116.423058 124.891914,96.315498 
	C125.221336,88.682144 124.918427,81.023460 125.055519,73.379051 
	C125.126846,69.401909 125.645218,65.433731 125.748436,61.455967 
	C125.853119,57.421642 127.992470,56.116425 131.744354,55.773220 
	C134.020569,55.565006 136.195343,54.247883 138.707840,53.214470 
	C139.000000,79.574478 139.000000,106.148956 139.000000,133.000000 
	C123.646881,133.000000 108.292099,133.000000 92.468658,133.000000 
z"/>
<path fill="#FEFEFD" opacity="1.000000" stroke="none" 
	d="
M40.531342,1.000000 
	C40.013893,1.490879 39.077526,2.173129 38.034309,2.444279 
	C18.659372,7.480143 7.009796,19.979519 2.324637,39.253227 
	C2.129986,40.053978 1.877248,40.840611 1.325786,41.816910 
	C1.000000,28.407578 1.000000,14.815155 1.000000,1.000000 
	C14.020048,1.000000 27.041367,1.000000 40.531342,1.000000 
z"/>
<path fill="#D0B48E" opacity="1.000000" stroke="none" 
	d="
M1.000000,48.416664 
	C1.135323,49.486225 1.270645,50.972450 1.202984,52.729340 
	C1.000000,51.611111 1.000000,50.222221 1.000000,48.416664 
z"/>
<path fill="#FEFDFD" opacity="1.000000" stroke="none" 
	d="
M40.023003,85.001762 
	C33.126400,82.921333 28.974838,77.739700 25.881935,71.756844 
	C18.984438,58.414474 17.787987,44.337128 22.263157,30.065866 
	C25.567717,19.527658 32.854435,12.647389 44.084202,11.322114 
	C55.543484,9.969753 64.891235,14.298993 70.634476,24.438204 
	C78.857506,38.955299 80.214668,54.439041 74.839874,70.235458 
	C71.962311,78.692535 65.615349,84.327606 58.308800,85.842499 
	C58.308800,77.186272 58.092506,68.604591 58.516239,60.054626 
	C58.589046,58.585590 61.206619,56.913662 62.984535,55.964767 
	C64.347366,55.237404 66.515244,55.969219 67.821709,55.198635 
	C69.255707,54.352848 71.019112,52.497562 70.972366,51.139519 
	C70.923233,49.712002 68.924583,47.172497 67.736816,47.148499 
	C57.593990,46.943539 47.441383,47.172909 37.292839,47.341030 
	C35.161003,47.376347 32.961937,47.426636 30.928799,47.972588 
	C29.474857,48.363014 28.246298,49.592789 26.917175,50.448051 
	C27.989059,52.042782 28.760967,54.060921 30.226881,55.099491 
	C31.419094,55.944157 33.440029,55.738842 35.098804,55.779121 
	C38.106655,55.852158 39.769623,57.225422 39.987701,61.122551 
	C40.025234,69.647003 40.024117,77.324387 40.023003,85.001762 
z"/>
<path fill="#B5873B" opacity="1.000000" stroke="none" 
	d="
M40.222572,84.640266 
	C40.024117,77.324387 40.025234,69.647003 40.076176,61.505951 
	C40.224712,68.787773 40.323425,76.533272 40.222572,84.640266 
z"/>
</svg>