<svg width="296" height="250" xmlns="http://www.w3.org/2000/svg">
 <g>
  <title>Layer 1</title>
  <g>
   <g transform="matrix(2.2533 0 0 2.2533 0.12941 -0.59454)">
    <path d="m-0.05743,111.21224l11,-25.9l14.2,0l7.9,-18.5l-14.2,0l11,-25.9l78.1,0c6.9,0 16.5,0.8 21.1,7.7s1.1,15 -1,19.9c-5.6,13.1 -13.7,21.8 -34.9,21.8l-14.7,0l-8.8,20.9l-69.7,0z" id="svg_1"/>
    <path fill="#9d9795" d="m125.04257,51.31224c-2.5,-3.8 -7.9,-5.5 -17,-5.5l-75,0l-6.9,16.3l14.1,0l-11.9,28l-14.2,0l-6.9,16.3l59.2,0l6.9,-16.3l-14.3,0l1.9,-4.5l32.2,0c20.7,0 26.3,-9 30.5,-18.9c2.3,-5.4 4.3,-11 1.4,-15.4zm-54.1,10.8l23.7,0c1.7,0 2.5,0.4 2.7,0.7c0.2,0.2 0.1,0.9 -0.3,2c-1.2,2.8 -4.1,4.6 -7.6,4.6l-21.6,0l3.1,-7.3z"/>
    <path fill="#cfb991" d="m108.04257,48.31224l-73.3,0l-4.8,11.3l14.1,0l-14.1,33l-14.1,0l-4.8,11.3l53.8,0l4.8,-11.3l-14.4,0l4.1,-9.5l33.9,0c19.4,0 24.3,-8.2 28.2,-17.4s6,-17.4 -13.4,-17.4zm-18.6,23.5l-25.3,0l5.2,-12.2l25.3,0c4.5,0 6.3,2.3 4.7,6.1c-1.7,3.8 -5.4,6.1 -9.9,6.1z"/>
   </g>
  </g>
 </g>

</svg>