<svg width="521" height="521" xmlns="http://www.w3.org/2000/svg">
 <g>
  <title>Layer 1</title>
  <g id="svg_23">
   <title>PU-V-Full-RGB</title>
   <path d="m262.42,333.21l18.84,-44.27l31.22,0c45.18,0 62.33,-18.54 74.18,-46.4c4.39,-10.31 11.74,-27.57 2,-42.25s-30.1,-16.29 -44.66,-16.29l-165.95,0l-23.4,55l30,0l-16.65,39.22l-30.1,0l-23.41,55l147.93,-0.01z" id="svg_24"/>
   <path fill="#9d9795" d="m380.19,205.91c-5.27,-8 -16.79,-11.72 -36.21,-11.72l-159.18,0l-14.73,34.58l30,0l-25.4,59.65l-30.06,0l-14.73,34.58l125.81,0l14.73,-34.6l-30.52,0l4.1,-9.64l68.46,0c44,0 55.78,-19 64.8,-40.21c4.86,-11.4 9.07,-23.32 2.91,-32.64m-114.87,22.86l50.28,0c6.93,0 5.94,3.47 5,5.63c-2.57,6 -8.75,9.77 -16.1,9.77l-45.74,0l6.56,-15.4z" class="cls-1" id="svg_25"/>
   <path fill="#cfb991" d="m344,199.5l-155.71,0l-10.2,24l30,0l-29.92,70.25l-30.05,0l-10.22,24l114.28,0l10.22,-24l-30.51,0l8.63,-20.27l72,0c41.26,0 51.63,-17.48 59.93,-37s12.82,-37 -28.43,-37m-39.47,50l-53.82,0l11.07,-26l53.78,0c9.52,0 13.36,4.9 9.9,13s-11.45,13 -21,13" class="cls-2" id="svg_26"/>
   <path d="m9.64,382.85l-9.4,-2.74l0,-6.79l36.76,0c23.94,0 32.77,7.65 32.77,25.72c0,16.91 -9.65,25.67 -28.57,25.67l-14.89,0l0,27.08l9.53,2.73l0,6.31l-35.84,0l0,-6.31l9.64,-2.73l0,-68.94zm16.67,-0.3l0,33.8l17.51,-1.29c4.35,-2 8.83,-4.63 8.83,-15.54c0,-8.25 -0.38,-17 -16.39,-17l-9.95,0.03z" id="svg_27"/>
   <path d="m206.28,423.57l-11.89,0l0,28.22l9.53,2.73l0,6.31l-35.84,0l0,-6.31l9.65,-2.73l0,-68.94l-9.53,-2.74l0,-6.79l38.36,0c22.74,0 31,8.07 31,23.58c0,12 -4.67,18.22 -15.48,22.5l16.2,31.67l10.46,3.45l0,6.31l-24.36,0l-18.1,-37.26zm-11.89,-41l0,33.43l17.72,-1.19c5.63,-2.79 8.34,-7.25 8.34,-16.43c0,-9.65 -3.12,-15.72 -13.12,-15.72l-12.94,-0.09z" id="svg_28"/>
   <path d="m255.91,454.52l9.52,-2.61l0,-69.06l-9.4,-2.74l0,-6.79l42.29,0c23.94,0 37.9,14.43 37.9,42.8c0,32.11 -14.48,44.71 -39.72,44.71l-40.59,0l0,-6.31zm26.31,-71.91l0,69.18l12.53,0c8.6,0 23.43,-1.4 23.43,-33c0,-24.89 -4.47,-36.2 -23.43,-36.2l-12.53,0.02z" id="svg_29"/>
   <path d="m37,506.43c0,10.64 -6.12,14.57 -16.2,14.57s-16.23,-6 -16.23,-14.57l0,-21.33l-4.57,-1.43l0,-4l18.65,0l0,4l-4.51,1.43l0,21.33c0,5.5 2.11,8.49 8.11,8.49c2.93,0 7.9,-0.91 7.9,-8.77l0,-21l-4.56,-1.43l0,-4l16,0l0,4l-4.59,1.38l0,21.33z" id="svg_30"/>
   <path d="m69.2,495.45l0,19.55l4.51,1.37l0,4l-15.71,0l0,-4l4.59,-1.37l0,-27.75l-2,-2.47l-2.73,-0.85l0,-4.28l10.35,0l19.86,25l0,-19.55l-4.57,-1.37l0,-4.08l15.74,0l0,4.08l-4.57,1.37l0,35.33l-5.33,0l-20.14,-24.98z" id="svg_31"/>
   <path d="m133.2,515l4.57,1.37l0,4l-18.71,0l0,-4l4.57,-1.37l0,-30l-4.57,-1.38l0,-4l18.71,0l0,4l-4.57,1.38l0,30z" id="svg_32"/>
   <path d="m385.14,515l4.56,1.37l0,4l-18.7,0l0,-4l4.56,-1.37l0,-30l-4.56,-1.33l0,-4l18.7,0l0,4l-4.56,1.38l0,29.95z" id="svg_33"/>
   <path d="m180.58,520.37l-8.81,0l-12.93,-35.27l-4.56,-1.43l0,-4l19.72,0l0,4l-4.63,1.43l8.59,25.09l8.75,-25.09l-4.57,-1.43l0,-4l16,0l0,4l-4.57,1.43l-12.99,35.27z" id="svg_34"/>
   <path d="m217.62,485.1l-4.57,-1.37l0,-4.08l32,0l0.33,12.58l-5.11,0l-2.48,-7.18l-10.6,0l0,11.44l10.57,0l0,5.78l-10.57,0l0,12.87l10.81,0l3.24,-7.13l5,0l-0.72,12.36l-32.47,0l0,-4l4.57,-1.14l0,-30.13z" id="svg_35"/>
   <path d="m284.49,503.75l-3.49,0l0,11.25l4.57,1.37l0,4l-18.69,0l0,-4l4.57,-1.37l0,-29.9l-4.57,-1.37l0,-4.08l18.6,0c11.39,0 14.91,4.41 14.91,11.28c0,4.52 -1,8.62 -6.59,10.66l6.53,13.28l5.72,1.76l0,3.74l-13.75,0l-7.81,-16.62zm-3.49,-18.65l0,14.25l6.44,-0.55a8.56,8.56 0 0 0 3.19,-7.1c0,-4.07 -1.07,-6.6 -5.26,-6.6l-4.37,0z" id="svg_36"/>
   <path d="m322.63,507.72l5.66,0l1.21,5.72a16.48,16.48 0 0 0 8.59,2.36a11.65,11.65 0 0 0 1.32,-0.05a6.13,6.13 0 0 0 2.53,-4.9c0,-9.52 -19.48,-5.28 -19.48,-19.2c0,-6.38 5.84,-12.49 15.52,-12.49a25.41,25.41 0 0 1 11.02,2.84l0,10.73l-5.3,0l-1.93,-6.82a18.66,18.66 0 0 0 -6.6,-1.32a6.82,6.82 0 0 0 -1.1,0.06a5.62,5.62 0 0 0 -2.69,4.78c0,8.15 19.31,5.23 19.31,18.88c0,7.37 -6.66,12.65 -15.63,12.65a23,23 0 0 1 -12.38,-3.69l-0.05,-9.55z" id="svg_37"/>
   <path d="m422,485.16l-5.28,0l-2.43,7.26l-5.11,0l0,-12.77l35.49,0l0,12.77l-5,0l-2.34,-7.26l-5.72,0l0,29.84l4.57,1.37l0,4l-18.73,0l0,-4l4.55,-1.37l0,-29.84z" id="svg_38"/>
   <path d="m476.61,504.69l-10.68,-19.59l-4.56,-1.43l0,-4l19.7,0l0,4l-4.63,1.43l6.72,13.26l6.76,-13.26l-4.56,-1.43l0,-4l16.06,0l0,4l-4.56,1.43l-10.73,19.48l0,10.42l4.57,1.37l0,4l-18.7,0l0,-4l4.62,-1.37l-0.01,-10.31z" id="svg_39"/>
   <polygon points="493.8299560546875,435.4700164794922 487.6400146484375,451.78997802734375 460.22998046875,451.78997802734375 460.22998046875,420.3000030517578 475.75,420.3000030517578 477.760009765625,429.11997985839844 484.6500244140625,429.11997985839844 484.6500244140625,402.6000213623047 477.760009765625,402.6000213623047 475.75,411.09999084472656 460.22998046875,411.09999084472656 460.22998046875,382.60997009277344 486.45001220703125,382.60997009277344 491.45001220703125,399.52000427246094 500.8800048828125,399.52000427246094 500.2900390625,373.3200225830078 434.0400390625,373.3200225830078 434.0400390625,380.10997009277344 443.44000244140625,382.8500213623047 443.44000244140625,451.89990234375 433.9200439453125,454.5198974609375 433.9200439453125,460.8299560546875 501.5899658203125,460.8299560546875 503.1400146484375,435.4700164794922 493.8299560546875,435.4700164794922 " id="svg_40"/>
   <path d="m151.17,430.74c0,22.2 -10.6,31.4 -32.33,31.4c-20,0 -34.46,-8 -34.46,-29.08l0,-50.21l-9.53,-2.74l0,-6.79l35.72,0l0,6.79l-9.57,2.74l0,50.21c0,12.62 5.84,18.16 19.77,18.16c9.61,0 18.45,-5.63 18.45,-19.32l0,-49.05l-9.4,-2.74l0,-6.79l30.88,0l0,6.79l-9.53,2.74l0,47.89z" id="svg_41"/>
   <path d="m417,430.74c0,22.2 -10.6,31.4 -32.33,31.4c-20,0 -34.47,-8 -34.47,-29.08l0,-50.21l-9.52,-2.74l0,-6.79l35.72,0l0,6.79l-9.53,2.74l0,50.21c0,12.62 5.83,18.16 19.77,18.16c9.61,0 18.45,-5.63 18.45,-19.32l0,-49.05l-9.41,-2.74l0,-6.79l30.84,0l0,6.79l-9.52,2.74l0,47.89z" id="svg_42"/>
   <path d="m512.52,520.26a8.73,8.73 0 1 1 8.73,-8.73a8.74,8.74 0 0 1 -8.73,8.73zm0,-15.65a6.92,6.92 0 1 0 6.92,6.92a6.92,6.92 0 0 0 -6.92,-6.92z" id="svg_43"/>
   <path d="m511.41,512.33l0,3.24l-1.71,0l0,-8.1l3.56,0c1.76,0 2.71,1 2.71,2.22a1.94,1.94 0 0 1 -1.17,1.92c0.4,0.15 1,0.56 1,2l0,0.4a6,6 0 0 0 0.12,1.54l-1.67,0a5.75,5.75 0 0 1 -0.17,-1.82l0,-0.12c0,-0.88 -0.22,-1.3 -1.53,-1.3l-1.14,0.02zm0,-1.4l1.47,0c1,0 1.33,-0.37 1.33,-1s-0.43,-1 -1.29,-1l-1.51,0l0,2z" id="svg_44"/>
  </g>
 </g>

</svg>